<svg width="270" height="270" viewBox="0 0 270 270" fill="none" xmlns="http://www.w3.org/2000/svg">
<path d="M4.03373 96.4653C13.988 108.967 57.009 100.644 84.6759 77.834C113.546 54.0328 124.851 26.0534 120.361 8.98282C117.239 -2.90154 63.938 10.7712 37.3283 34.6862C16.2325 53.6426 -5.92048 83.9632 4.03373 96.4653Z" fill="#B4B865"/>
<path d="M6.71747 117.454C13.0934 115.438 26.3006 113.357 33.5874 112.772C37.0843 112.479 37.3283 113.146 33.8151 116.771C27.6018 123.16 14.297 137.256 5.48133 143.97C2.56988 146.181 0.73193 143.824 0.601809 141.304C-0.341564 136.475 1.76905e-06 129.371 0.471689 125.16C1.35 120.884 2.84639 118.706 6.71747 117.486V117.454Z" fill="#62744D"/>
<path d="M14.4434 158.602C22.5434 138.166 63.759 108.561 82.2036 95.2785C84.7084 93.4739 92.6783 89.312 94.4024 92.1571C101.331 103.537 87.0994 139.093 80.6747 153.595C73.6157 169.544 60.5711 201.522 48.6651 215.829C46.5343 218.398 43.2325 216.366 40.809 214.057C28.8054 202.595 20.7867 190.272 16.6554 181.59C14.1506 176.323 12.0036 164.715 14.4271 158.602H14.4434Z" fill="#62744D"/>
<path d="M87.1807 165.43C89.409 160.423 93.7843 158.781 95.5572 167.349C99.1681 184.842 97.6717 216.187 97.2488 229.242C97.0699 234.786 94.2398 244.508 87.6524 242.996C82.9193 241.906 75.3235 237.631 71.5988 234.688C67.0283 231.095 65.9548 224.673 66.703 220.365C68.7362 208.627 82.2849 176.404 87.1807 165.43Z" fill="#89866D"/>
<path d="M117.466 83.5242C123.029 68.242 134.642 67.4454 147.313 75.7043C160.845 84.516 169.758 96.9531 171.125 119.763C172.101 135.923 169.482 158.96 166.083 192.191C164.423 208.351 165.904 231.323 168.539 246.881C169.303 251.352 150.728 261.725 141.555 266.553C138.383 268.228 134.61 268.309 131.34 266.829C122.053 262.602 104.861 254.279 106.373 247.548C117.596 197.897 104.552 174.551 104.633 152.148C104.763 116.82 108.634 107.716 117.434 83.5405L117.466 83.5242Z" fill="#505A49"/>
<path d="M183.502 129.729C183.942 114.902 176.395 94.6445 195.067 122.429C209.039 143.206 213.495 209.098 211.983 224.494C211.69 227.437 206.062 231.729 194.172 237.338C181.274 243.418 175.825 246.198 176.086 222.202C176.183 212.854 182.592 160.228 183.502 129.729Z" fill="#89866D"/>
<path d="M186.82 79.7199C195.36 93.1813 209.689 122.738 214.536 140.979C219.904 161.155 222.083 190.776 222.717 206.172C223.01 213.537 224.246 216.024 228.443 212.236C238.348 203.278 249.766 188.939 257.362 165.707C260.371 156.521 258.68 140.946 251.328 130.005C237.519 109.455 212.601 85.7028 192.578 76.5497C183.567 72.4365 186.381 79.0209 186.82 79.7199Z" fill="#62744D"/>
<path d="M175.533 7.74725C155.575 1.8132 152.241 5.40614 150.614 16.25C147.719 35.5804 159.642 43.9693 168.799 47.1071C200.971 58.146 213.463 68.3396 233.387 87.4586C251.084 104.432 271.805 141.906 268.536 113.048C265.543 86.6457 256.077 67.608 236.201 46.3592C219.367 28.362 194.611 13.4212 175.516 7.74725H175.533Z" fill="#B4B865"/>
</svg>
